<svg width="126" height="50" viewBox="0 0 126 50" fill="none" xmlns="http://www.w3.org/2000/svg">
  <style>
    /* Default (Light Mode) - Dark Icon */
    path.body { fill: #0B0B0B; }
    path.detail { fill: #FFFFFF; }

    /* Dark Mode - White Icon */
    @media (prefers-color-scheme: dark) {
      path.body { fill: #FFFFFF; }
      path.detail { fill: #0B0B0B; }
    }
  </style>
  <path class="body" d="M68.6158 0L0 24.0453L10.4415 50H107.399L125.179 26.7303L109.666 13.5442L90.6921 26.7303V10.8592L68.6158 0Z" />
  <path class="detail" d="M19.6289 38.4765C19.6029 37.8918 19.4665 37.398 19.2196 36.9952C18.9857 36.5794 18.6543 36.2611 18.2255 36.0402C17.7967 35.8063 17.303 35.6893 16.7442 35.6893C16.1205 35.6893 15.5748 35.8323 15.107 36.1181C14.6522 36.404 14.2949 36.8068 14.035 37.3266C13.7751 37.8333 13.6452 38.431 13.6452 39.1197C13.6452 39.8604 13.7816 40.5036 14.0545 41.0493C14.3404 41.5951 14.7302 42.0174 15.2239 42.3162C15.7307 42.6151 16.3089 42.7645 16.9586 42.7645C18.1151 42.7645 19.0896 42.3552 19.8823 41.5366L21.0712 42.7255C20.5644 43.2843 19.9472 43.7196 19.2196 44.0314C18.4919 44.3303 17.6798 44.4797 16.7832 44.4797C15.7177 44.4797 14.7886 44.2588 13.996 43.817C13.2034 43.3752 12.5862 42.7645 12.1444 41.9849C11.7026 41.1922 11.4817 40.2762 11.4817 39.2367C11.4817 38.1972 11.7026 37.2876 12.1444 36.5079C12.5862 35.7153 13.2034 35.0981 13.996 34.6563C14.7886 34.2145 15.6982 33.9871 16.7247 33.9741C17.9462 33.9741 18.9272 34.2275 19.6679 34.7343C20.4085 35.228 20.9348 35.9297 21.2466 36.8393C21.5585 37.7489 21.6689 38.8274 21.578 40.0748H13.2944V38.4765H19.6289Z" />
  <path class="detail" d="M34.106 36.5664C33.6512 36.2935 33.1509 36.0791 32.6052 35.9232C32.0724 35.7543 31.5787 35.6698 31.1239 35.6698C30.6821 35.6698 30.3183 35.7543 30.0324 35.9232C29.7465 36.0921 29.6036 36.3715 29.6036 36.7613C29.6036 37.0862 29.7335 37.3461 29.9934 37.541C30.2663 37.7229 30.6106 37.8788 31.0264 38.0087C31.4422 38.1387 31.884 38.2751 32.3518 38.418C32.8196 38.561 33.2614 38.7494 33.6772 38.9833C34.106 39.2042 34.4503 39.5095 34.7102 39.8994C34.9701 40.2892 35.1 40.8024 35.1 41.4391C35.1 42.1408 34.9116 42.719 34.5348 43.1738C34.171 43.6156 33.6837 43.947 33.073 44.1678C32.4752 44.3758 31.8256 44.4797 31.1239 44.4797C30.3702 44.4797 29.6166 44.3563 28.8629 44.1094C28.1093 43.8625 27.4726 43.5052 26.9528 43.0374L27.752 41.5171C28.2068 41.9199 28.759 42.2383 29.4087 42.4721C30.0584 42.693 30.6626 42.8035 31.2213 42.8035C31.5462 42.8035 31.8321 42.7645 32.0789 42.6865C32.3388 42.5956 32.5402 42.4656 32.6832 42.2967C32.8391 42.1278 32.917 41.9069 32.917 41.634C32.917 41.2702 32.7871 40.9843 32.5272 40.7764C32.2673 40.5685 31.9295 40.3996 31.5137 40.2697C31.0979 40.1267 30.6561 39.9903 30.1883 39.8604C29.7205 39.7174 29.2787 39.5355 28.8629 39.3146C28.4601 39.0937 28.1288 38.7949 27.8689 38.418C27.609 38.0412 27.4791 37.541 27.4791 36.9173C27.4791 36.2156 27.661 35.6503 28.0248 35.2215C28.3887 34.7798 28.8564 34.4614 29.4282 34.2665C30.0129 34.0586 30.6366 33.9546 31.2993 33.9546C31.949 33.9546 32.5987 34.0456 33.2484 34.2275C33.8981 34.4094 34.4568 34.6628 34.9246 34.9877L34.106 36.5664Z" />
  <path class="detail" d="M44.7985 38.4765C44.7725 37.8918 44.6361 37.398 44.3892 36.9952C44.1553 36.5794 43.824 36.2611 43.3952 36.0402C42.9664 35.8063 42.4726 35.6893 41.9139 35.6893C41.2902 35.6893 40.7444 35.8323 40.2766 36.1181C39.8218 36.404 39.4645 36.8068 39.2046 37.3266C38.9448 37.8333 38.8148 38.431 38.8148 39.1197C38.8148 39.8604 38.9513 40.5036 39.2241 41.0493C39.51 41.5951 39.8998 42.0174 40.3936 42.3162C40.9003 42.6151 41.4786 42.7645 42.1283 42.7645C43.2847 42.7645 44.2593 42.3552 45.0519 41.5366L46.2408 42.7255C45.7341 43.2843 45.1169 43.7196 44.3892 44.0314C43.6615 44.3303 42.8494 44.4797 41.9528 44.4797C40.8873 44.4797 39.9583 44.2588 39.1656 43.817C38.373 43.3752 37.7558 42.7645 37.314 41.9849C36.8722 41.1922 36.6513 40.2762 36.6513 39.2367C36.6513 38.1972 36.8722 37.2876 37.314 36.5079C37.7558 35.7153 38.373 35.0981 39.1656 34.6563C39.9583 34.2145 40.8679 33.9871 41.8944 33.9741C43.1158 33.9741 44.0968 34.2275 44.8375 34.7343C45.5781 35.228 46.1044 35.9297 46.4162 36.8393C46.7281 37.7489 46.8385 38.8274 46.7476 40.0748H38.464V38.4765H44.7985Z" />
  <path class="detail" d="M89.436 38.4765C89.41 37.8918 89.2735 37.398 89.0267 36.9952C88.7928 36.5794 88.4614 36.2611 88.0326 36.0402C87.6038 35.8063 87.1101 35.6893 86.5513 35.6893C85.9276 35.6893 85.3819 35.8323 84.9141 36.1181C84.4593 36.404 84.102 36.8068 83.8421 37.3266C83.5822 37.8333 83.4523 38.431 83.4523 39.1197C83.4523 39.8604 83.5887 40.5036 83.8616 41.0493C84.1474 41.5951 84.5373 42.0174 85.031 42.3162C85.5378 42.6151 86.116 42.7645 86.7657 42.7645C87.9222 42.7645 88.8967 42.3552 89.6893 41.5366L90.8783 42.7255C90.3715 43.2843 89.7543 43.7196 89.0267 44.0314C88.299 44.3303 87.4869 44.4797 86.5903 44.4797C85.5248 44.4797 84.5957 44.2588 83.8031 43.817C83.0105 43.3752 82.3933 42.7645 81.9515 41.9849C81.5097 41.1922 81.2888 40.2762 81.2888 39.2367C81.2888 38.1971 81.5097 37.2876 81.9515 36.5079C82.3933 35.7153 83.0105 35.0981 83.8031 34.6563C84.5957 34.2145 85.5053 33.9871 86.5318 33.9741C87.7533 33.9741 88.7343 34.2275 89.4749 34.7343C90.2156 35.228 90.7419 35.9297 91.0537 36.8393C91.3656 37.7489 91.476 38.8274 91.3851 40.0748H83.1014V38.4765H89.436Z" />
  <path class="detail" d="M108.493 38.4765C108.467 37.8918 108.331 37.398 108.084 36.9952C107.85 36.5794 107.519 36.2611 107.09 36.0402C106.661 35.8063 106.168 35.6893 105.609 35.6893C104.985 35.6893 104.439 35.8323 103.972 36.1181C103.517 36.404 103.159 36.8068 102.9 37.3266C102.64 37.8333 102.51 38.431 102.51 39.1197C102.51 39.8604 102.646 40.5036 102.919 41.0493C103.205 41.5951 103.595 42.0174 104.088 42.3162C104.595 42.6151 105.173 42.7645 105.823 42.7645C106.98 42.7645 107.954 42.3552 108.747 41.5366L109.936 42.7255C109.429 43.2843 108.812 43.7196 108.084 44.0314C107.356 44.3303 106.544 44.4797 105.648 44.4797C104.582 44.4797 103.653 44.2588 102.861 43.817C102.068 43.3752 101.451 42.7645 101.009 41.9849C100.567 41.1922 100.346 40.2762 100.346 39.2367C100.346 38.1971 100.567 37.2876 101.009 36.5079C101.451 35.7153 102.068 35.0981 102.861 34.6563C103.653 34.2145 104.563 33.9871 105.589 33.9741C106.811 33.9741 107.792 34.2275 108.532 34.7343C109.273 35.228 109.799 35.9297 110.111 36.8393C110.423 37.7489 110.533 38.8274 110.443 40.0748H102.159V38.4765H108.493Z" />
</svg>
