<svg width="100" height="286" viewBox="0 0 100 286" fill="none" xmlns="http://www.w3.org/2000/svg">
<path d="M19.1287 9.60334C-2.49134 25.8733 -6.38134 57.6534 10.5187 80.0234C18.3587 90.3934 29.2487 97.0233 40.8387 99.5633C54.3887 102.523 67.8587 105.923 81.1287 110.063C88.9887 112.513 91.7687 122.413 86.1087 128.393C86.0687 128.433 86.0387 128.463 85.9987 128.503C79.5087 135.243 65.0087 139.743 34.2887 144.563C19.5787 146.873 8.88866 159.333 8.88866 174.193C8.88866 190.723 22.3387 204.163 38.8887 204.163L69.1687 204.023C76.5887 204.023 82.7387 210.063 82.8787 217.473C82.9387 221.043 81.5487 224.463 78.9587 227.113C76.2587 229.863 72.5187 231.443 68.7087 231.443H62.1087C50.1387 231.443 40.3987 241.183 40.3987 253.153C40.3987 262.803 40.3087 281.233 40.3087 281.413C40.2987 283.623 42.0787 285.423 44.2887 285.433H44.3087C46.5087 285.433 48.2987 283.663 48.3087 281.463C48.3087 281.273 48.3987 262.833 48.3987 253.153C48.3987 245.593 54.5487 239.443 62.1087 239.443H68.7087C74.6487 239.443 80.4687 236.993 84.6687 232.713C88.7787 228.523 90.9787 223.063 90.8787 217.323C90.6587 205.583 80.9187 196.023 69.1487 196.023L38.8687 196.163C26.7487 196.163 16.8887 186.313 16.8887 174.193C16.8887 163.293 24.7287 154.163 35.5287 152.463C68.5887 147.283 83.8287 142.293 91.7687 134.053C97.6587 127.933 99.2487 120.493 99.3587 110.693C99.3787 108.763 99.3487 106.733 99.2787 104.603V104.503C99.1787 101.643 99.0187 98.5933 98.8487 95.3533L98.7987 94.2633C98.7887 94.0733 98.7587 93.8833 98.7187 93.6933C98.3087 80.9433 98.6987 68.2033 99.5687 55.5133C100.389 43.5233 96.9587 31.0433 88.9787 20.5633C71.9687 -1.78667 40.7487 -6.65666 19.1287 9.60334ZM91.3687 109.783L66.4887 77.0834C65.3787 75.6234 63.5687 74.8333 61.7587 75.1133C57.5187 75.7733 52.9787 74.0833 50.1187 70.3233C46.0187 64.9333 46.9087 57.3533 52.1087 53.3933C57.3087 49.4333 64.8587 50.5933 68.9587 55.9933C71.8187 59.7533 72.2387 64.5733 70.4687 68.4933C69.7187 70.1633 69.9987 72.1133 71.1087 73.5733L84.0087 90.5333C85.5187 92.5133 86.8487 94.6233 87.9287 96.8633C90.2787 101.773 90.3887 104.933 91.3787 109.703V109.793L91.3687 109.783Z" fill="black"/>
</svg>
